<?xml version="1.0" standalone="no"?>
<!DOCTYPE svg PUBLIC "-//W3C//DTD SVG 20010904//EN"
 "http://www.w3.org/TR/2001/REC-SVG-20010904/DTD/svg10.dtd">
<svg version="1.0" xmlns="http://www.w3.org/2000/svg"
 width="1024.000000pt" height="1024.000000pt" viewBox="0 0 1024.000000 1024.000000"
 preserveAspectRatio="xMidYMid meet">
<metadata>
Created by potrace 1.11, written by Peter Selinger 2001-2013
</metadata>
<g transform="translate(0.000000,1024.000000) scale(0.100000,-0.100000)"
fill="#000000" stroke="none">
<path d="M2959 10236 c-3 -3 -18 -7 -34 -10 -53 -10 -169 -73 -214 -118 -42
-42 -111 -139 -115 -162 -1 -6 -4 -15 -8 -21 -6 -10 -12 -37 -24 -105 -6 -36
-7 -44 -19 -140 -9 -72 -13 -109 -19 -145 -6 -36 -16 -110 -21 -145 -1 -14 -6
-50 -10 -80 -4 -30 -9 -68 -11 -85 -2 -16 -5 -46 -8 -65 -3 -19 -8 -57 -11
-85 -4 -27 -8 -57 -10 -65 -2 -8 -6 -40 -10 -71 -3 -31 -7 -65 -9 -75 -2 -11
-7 -46 -10 -79 -4 -33 -9 -67 -11 -75 -2 -8 -7 -40 -9 -70 -3 -30 -7 -64 -10
-75 -2 -11 -7 -45 -10 -76 -4 -31 -8 -65 -10 -75 -5 -26 -15 -101 -21 -154 -3
-25 -13 -97 -21 -160 -9 -63 -17 -129 -19 -147 -2 -17 -6 -49 -9 -70 -20 -139
-35 -252 -40 -298 -7 -58 -19 -150 -22 -170 -3 -11 -7 -38 -9 -60 -7 -55 -15
-115 -20 -145 -2 -14 -7 -50 -10 -80 -3 -30 -7 -62 -10 -70 -2 -8 -6 -42 -10
-75 -3 -33 -8 -71 -10 -85 -5 -24 -13 -87 -20 -140 -10 -88 -17 -137 -20 -150
-2 -8 -6 -40 -10 -71 -3 -31 -7 -65 -9 -75 -2 -11 -7 -48 -11 -84 -4 -36 -9
-74 -11 -85 -5 -29 -13 -84 -19 -135 -3 -25 -9 -76 -15 -115 -5 -38 -12 -90
-15 -115 -3 -25 -12 -94 -21 -155 -8 -60 -17 -132 -21 -160 -9 -75 -11 -90
-13 -90 -1 0 -3 -16 -5 -35 -1 -19 -5 -53 -9 -75 -3 -22 -8 -60 -11 -85 -3
-25 -7 -56 -10 -70 -2 -14 -7 -50 -11 -80 -3 -30 -10 -77 -14 -105 -5 -27 -7
-88 -6 -135 10 -247 201 -444 444 -455 41 -2 76 -6 79 -9 3 -3 13 -1 22 4 10
5 23 5 30 1 7 -5 29 -5 50 -1 21 4 47 3 59 -1 12 -5 24 -4 27 1 3 6 15 6 29 0
13 -5 27 -6 30 -3 8 8 76 9 76 1 0 -4 14 -3 30 2 17 5 30 5 30 0 0 -5 13 -5
30 0 17 5 30 5 30 0 0 -5 13 -5 30 0 17 5 30 6 30 2 0 -4 29 -7 65 -7 36 0 65
3 65 7 0 4 13 3 29 -2 15 -4 34 -4 42 0 7 5 20 5 29 0 9 -5 22 -5 30 0 8 5 21
5 30 0 9 -5 22 -5 30 0 8 5 21 5 30 0 9 -5 22 -5 30 0 8 5 21 5 30 0 9 -5 22
-5 30 0 8 5 21 5 30 0 9 -5 22 -5 30 0 8 5 21 5 30 0 9 -5 22 -5 30 0 8 5 21
5 30 0 8 -4 22 -4 31 0 8 5 21 5 29 0 8 -5 21 -5 30 0 9 5 22 5 30 0 8 -5 21
-5 30 0 9 5 22 5 30 0 8 -5 21 -5 30 0 9 5 22 5 29 1 7 -5 29 -5 50 -1 21 4
47 3 59 -1 12 -5 24 -4 27 1 3 6 15 6 29 0 13 -5 27 -6 30 -3 8 8 76 9 76 1 0
-4 14 -3 30 2 17 5 30 5 30 0 0 -5 13 -5 30 0 17 5 30 6 30 2 0 -4 29 -7 65
-7 36 0 65 3 65 7 0 4 14 3 30 -2 17 -5 30 -5 30 0 0 5 12 5 28 1 15 -5 37 -5
49 0 13 5 25 4 28 -1 3 -6 15 -6 29 0 13 5 27 6 30 3 8 -8 196 -9 196 -1 0 8
39 -2 45 -13 3 -4 -13 -84 -35 -176 -61 -249 -81 -336 -83 -355 -1 -10 -5 -18
-10 -18 -4 0 -6 -4 -3 -8 3 -5 -3 -41 -14 -80 -10 -40 -19 -76 -19 -80 -1 -4
-6 -23 -11 -42 -5 -19 -12 -53 -16 -75 -3 -22 -8 -44 -12 -49 -3 -5 -6 -19 -8
-30 -2 -12 -5 -30 -8 -41 -10 -38 -47 -190 -52 -215 -2 -14 -7 -33 -10 -42 -3
-9 -7 -27 -9 -40 -3 -13 -12 -52 -21 -88 -19 -76 -18 -73 -29 -125 -4 -22 -10
-44 -13 -50 -3 -5 -7 -18 -8 -30 -1 -11 -17 -78 -34 -150 -17 -71 -34 -141
-36 -155 -3 -14 -17 -70 -31 -125 -13 -55 -27 -109 -29 -120 -10 -52 -13 -63
-24 -105 -7 -25 -13 -52 -15 -60 -3 -12 -55 -236 -71 -305 -4 -17 -9 -39 -18
-80 -1 -5 -5 -19 -9 -30 -3 -11 -8 -31 -11 -45 -2 -14 -12 -54 -21 -90 -9 -36
-19 -74 -21 -85 -2 -11 -17 -78 -34 -150 -17 -71 -33 -141 -36 -154 -3 -14 -7
-28 -9 -32 -3 -4 -7 -24 -11 -44 -6 -40 -8 -49 -24 -110 -14 -56 -101 -416
-106 -440 -2 -11 -9 -44 -15 -72 -5 -29 -8 -57 -5 -62 4 -5 2 -12 -4 -16 -6
-4 -8 -10 -6 -14 3 -4 8 -31 11 -61 26 -230 219 -408 451 -416 209 -7 346 79
478 304 36 62 66 117 66 122 0 6 5 10 10 10 6 0 10 4 10 10 0 5 32 63 70 129
39 66 70 125 70 131 0 5 5 10 10 10 6 0 10 7 10 15 0 8 5 15 10 15 6 0 10 4
10 9 0 14 111 205 124 213 6 4 8 8 4 8 -4 0 10 29 32 65 22 36 40 68 40 72 0
3 6 14 14 22 7 9 27 41 43 71 57 104 116 205 135 233 11 15 16 27 11 27 -4 0
-3 4 3 8 5 4 41 61 79 127 37 66 73 123 79 127 6 4 8 8 4 8 -6 0 39 83 82 150
5 8 22 38 37 65 15 28 32 58 38 67 5 10 71 122 145 250 74 128 140 240 145
249 6 10 30 53 54 96 24 43 57 97 73 121 16 23 27 42 24 42 -3 0 9 24 28 53
18 28 45 75 61 102 15 28 48 85 74 129 43 73 57 98 106 186 11 19 25 42 31 50
7 8 25 39 40 68 16 29 34 61 39 70 69 116 84 142 90 161 3 11 11 21 16 21 5 0
9 4 9 10 0 5 25 50 55 101 30 50 55 95 55 100 0 5 5 9 10 9 6 0 10 5 10 11 0
6 20 45 45 86 25 40 45 76 45 78 0 4 55 99 90 155 5 8 28 48 51 89 23 41 63
111 89 155 26 45 48 85 48 90 0 5 4 12 9 15 8 6 20 25 84 136 65 115 121 212
129 225 15 25 94 161 131 225 19 33 40 69 46 80 7 11 16 28 19 38 3 9 10 17
15 17 5 0 9 5 9 10 0 6 57 108 126 228 70 119 136 233 147 252 10 19 27 46 37
60 10 14 18 29 18 33 1 4 17 34 36 66 20 32 36 62 36 65 0 4 5 12 10 19 16 18
120 198 120 207 0 4 7 13 15 20 8 7 12 16 9 21 -3 5 -1 9 4 9 13 0 100 178
111 229 5 24 8 78 6 120 -5 92 -8 105 -43 181 -8 19 -15 39 -14 43 1 4 -5 10
-13 13 -8 4 -15 11 -15 18 0 18 -80 96 -135 131 -48 31 -109 56 -150 63 -57 8
-174 14 -252 12 -34 -1 -65 0 -70 3 -5 3 -15 2 -22 -2 -7 -5 -28 -5 -47 -1
-19 4 -34 5 -34 1 0 -5 -19 -5 -42 -2 -24 3 -63 4 -88 1 -25 -3 -60 -2 -77 1
-19 4 -33 3 -33 -3 0 -5 -5 -6 -10 -3 -13 8 -216 9 -229 1 -5 -4 -12 -2 -15 3
-3 5 -21 6 -39 2 -18 -5 -41 -5 -52 -1 -11 4 -31 4 -45 0 -14 -4 -35 -4 -46 0
-11 5 -27 5 -34 0 -7 -4 -25 -4 -40 0 -15 4 -33 4 -39 0 -7 -4 -30 -4 -52 0
-22 4 -41 4 -44 0 -2 -4 -21 -4 -42 -1 -21 4 -55 4 -76 0 -20 -3 -39 -3 -42 1
-3 4 -22 4 -42 1 -21 -4 -52 -4 -70 0 -17 3 -37 3 -43 -1 -7 -4 -27 -4 -46 0
-19 4 -34 5 -34 1 0 -5 -19 -5 -42 -2 -24 3 -63 4 -88 1 -25 -3 -60 -2 -77 1
-19 4 -33 3 -33 -3 0 -5 -5 -6 -10 -3 -6 3 -74 6 -153 5 -78 0 -153 0 -167 0
-42 3 -45 3 -55 0 -5 -1 -25 -2 -44 -1 -35 1 -35 -1 -18 66 3 11 33 102 66
202 34 99 61 188 61 197 0 9 4 16 8 16 5 0 9 6 9 13 0 10 82 270 100 317 3 8
7 20 9 25 1 6 14 44 29 85 14 41 28 86 31 99 3 13 9 32 14 41 5 9 11 28 14 41
3 13 17 58 31 99 15 41 28 82 30 91 2 8 10 32 19 52 8 21 15 40 16 42 0 3 0 6
1 8 0 1 2 11 4 23 3 12 14 42 25 68 11 26 20 54 20 61 0 8 5 26 12 42 11 29
13 34 22 68 8 31 126 387 136 410 16 38 162 494 159 497 -1 2 3 14 10 27 30
56 16 257 -22 326 -6 11 -11 23 -12 26 0 4 -17 31 -39 60 -42 58 -108 115
-171 148 -100 51 -37 50 -1661 50 -831 1 -1513 -1 -1515 -3z"/>
</g>
</svg>
